<mxfile host="app.diagrams.net" modified="2022-08-11T16:52:46.733Z" agent="5.0 (Windows NT 10.0; Win64; x64) AppleWebKit/537.36 (KHTML, like Gecko) Chrome/104.0.0.0 Safari/537.36" etag="FB_jd3VNXj-KdcgWyHxb" version="20.2.3" type="github">
  <diagram id="C5RBs43oDa-KdzZeNtuy" name="Page-1">
    <mxGraphModel dx="793" dy="506" grid="1" gridSize="10" guides="1" tooltips="1" connect="1" arrows="1" fold="1" page="1" pageScale="1" pageWidth="827" pageHeight="1169" math="0" shadow="1">
      <root>
        <mxCell id="WIyWlLk6GJQsqaUBKTNV-0" />
        <mxCell id="WIyWlLk6GJQsqaUBKTNV-1" parent="WIyWlLk6GJQsqaUBKTNV-0" />
        <mxCell id="WIyWlLk6GJQsqaUBKTNV-2" value="" style="rounded=0;html=1;jettySize=auto;orthogonalLoop=1;fontSize=11;endArrow=block;endFill=0;endSize=8;strokeWidth=1;shadow=0;labelBackgroundColor=none;edgeStyle=orthogonalEdgeStyle;startArrow=none;" parent="WIyWlLk6GJQsqaUBKTNV-1" source="E3TxaSYvaLSwamWDa7Aa-1" target="WIyWlLk6GJQsqaUBKTNV-6" edge="1">
          <mxGeometry relative="1" as="geometry" />
        </mxCell>
        <mxCell id="WIyWlLk6GJQsqaUBKTNV-3" value="instalacion" style="rounded=1;whiteSpace=wrap;html=1;fontSize=12;glass=0;strokeWidth=1;shadow=0;" parent="WIyWlLk6GJQsqaUBKTNV-1" vertex="1">
          <mxGeometry x="160" y="10" width="120" height="40" as="geometry" />
        </mxCell>
        <mxCell id="WIyWlLk6GJQsqaUBKTNV-6" value="el archivo existe?" style="rhombus;whiteSpace=wrap;html=1;shadow=0;fontFamily=Helvetica;fontSize=12;align=center;strokeWidth=1;spacing=6;spacingTop=-4;" parent="WIyWlLk6GJQsqaUBKTNV-1" vertex="1">
          <mxGeometry x="170" y="170" width="100" height="80" as="geometry" />
        </mxCell>
        <mxCell id="WIyWlLk6GJQsqaUBKTNV-7" value="comprobar si la ruta es absoluta o relativa" style="rounded=0;whiteSpace=wrap;html=1;fontSize=12;glass=0;strokeWidth=1;shadow=0;" parent="WIyWlLk6GJQsqaUBKTNV-1" vertex="1">
          <mxGeometry x="354" y="180" width="136" height="40" as="geometry" />
        </mxCell>
        <mxCell id="E3TxaSYvaLSwamWDa7Aa-0" value="&lt;b&gt;&lt;font style=&quot;font-size: 15px;&quot;&gt;error&lt;/font&gt;&lt;/b&gt;" style="rounded=0;whiteSpace=wrap;html=1;fillColor=#FF0000;" vertex="1" parent="WIyWlLk6GJQsqaUBKTNV-1">
          <mxGeometry x="10" y="470" width="120" height="60" as="geometry" />
        </mxCell>
        <mxCell id="E3TxaSYvaLSwamWDa7Aa-1" value="validaciÃ³n del archivo&amp;nbsp;" style="rounded=0;whiteSpace=wrap;html=1;" vertex="1" parent="WIyWlLk6GJQsqaUBKTNV-1">
          <mxGeometry x="160" y="90" width="120" height="40" as="geometry" />
        </mxCell>
        <mxCell id="E3TxaSYvaLSwamWDa7Aa-2" value="" style="rounded=0;html=1;jettySize=auto;orthogonalLoop=1;fontSize=11;endArrow=none;endFill=0;endSize=8;strokeWidth=1;shadow=0;labelBackgroundColor=none;edgeStyle=orthogonalEdgeStyle;" edge="1" parent="WIyWlLk6GJQsqaUBKTNV-1" source="WIyWlLk6GJQsqaUBKTNV-3" target="E3TxaSYvaLSwamWDa7Aa-1">
          <mxGeometry relative="1" as="geometry">
            <mxPoint x="220" y="120" as="sourcePoint" />
            <mxPoint x="220" y="170" as="targetPoint" />
          </mxGeometry>
        </mxCell>
        <mxCell id="E3TxaSYvaLSwamWDa7Aa-8" value="" style="endArrow=none;html=1;rounded=0;fontSize=15;entryX=0;entryY=0.5;entryDx=0;entryDy=0;" edge="1" parent="WIyWlLk6GJQsqaUBKTNV-1" target="WIyWlLk6GJQsqaUBKTNV-6">
          <mxGeometry width="50" height="50" relative="1" as="geometry">
            <mxPoint x="80" y="210" as="sourcePoint" />
            <mxPoint x="130" y="160" as="targetPoint" />
          </mxGeometry>
        </mxCell>
        <mxCell id="E3TxaSYvaLSwamWDa7Aa-9" value="" style="endArrow=classic;html=1;rounded=0;fontSize=15;" edge="1" parent="WIyWlLk6GJQsqaUBKTNV-1">
          <mxGeometry width="50" height="50" relative="1" as="geometry">
            <mxPoint x="80" y="210" as="sourcePoint" />
            <mxPoint x="80" y="470" as="targetPoint" />
          </mxGeometry>
        </mxCell>
        <mxCell id="E3TxaSYvaLSwamWDa7Aa-15" value="" style="endArrow=classic;html=1;rounded=0;fontSize=13;entryX=0;entryY=0.75;entryDx=0;entryDy=0;" edge="1" parent="WIyWlLk6GJQsqaUBKTNV-1" source="WIyWlLk6GJQsqaUBKTNV-6" target="WIyWlLk6GJQsqaUBKTNV-7">
          <mxGeometry width="50" height="50" relative="1" as="geometry">
            <mxPoint x="240" y="260" as="sourcePoint" />
            <mxPoint x="340" y="210" as="targetPoint" />
          </mxGeometry>
        </mxCell>
        <mxCell id="E3TxaSYvaLSwamWDa7Aa-16" value="SI" style="text;strokeColor=none;fillColor=none;align=left;verticalAlign=middle;spacingLeft=4;spacingRight=4;overflow=hidden;points=[[0,0.5],[1,0.5]];portConstraint=eastwest;rotatable=0;labelBackgroundColor=none;fontSize=14;" vertex="1" parent="WIyWlLk6GJQsqaUBKTNV-1">
          <mxGeometry x="290" y="185" width="80" height="30" as="geometry" />
        </mxCell>
        <mxCell id="E3TxaSYvaLSwamWDa7Aa-17" value="NO" style="text;strokeColor=none;fillColor=none;align=left;verticalAlign=middle;spacingLeft=4;spacingRight=4;overflow=hidden;points=[[0,0.5],[1,0.5]];portConstraint=eastwest;rotatable=0;labelBackgroundColor=none;fontSize=14;" vertex="1" parent="WIyWlLk6GJQsqaUBKTNV-1">
          <mxGeometry x="100" y="185" width="80" height="30" as="geometry" />
        </mxCell>
        <mxCell id="E3TxaSYvaLSwamWDa7Aa-18" value="" style="endArrow=classic;html=1;rounded=0;fontSize=14;" edge="1" parent="WIyWlLk6GJQsqaUBKTNV-1">
          <mxGeometry width="50" height="50" relative="1" as="geometry">
            <mxPoint x="421.5" y="220" as="sourcePoint" />
            <mxPoint x="421.5" y="300" as="targetPoint" />
          </mxGeometry>
        </mxCell>
        <mxCell id="E3TxaSYvaLSwamWDa7Aa-21" value="" style="edgeStyle=orthogonalEdgeStyle;rounded=0;orthogonalLoop=1;jettySize=auto;html=1;fontSize=14;" edge="1" parent="WIyWlLk6GJQsqaUBKTNV-1" source="E3TxaSYvaLSwamWDa7Aa-19">
          <mxGeometry relative="1" as="geometry">
            <mxPoint x="560" y="350" as="targetPoint" />
          </mxGeometry>
        </mxCell>
        <mxCell id="E3TxaSYvaLSwamWDa7Aa-23" value="" style="edgeStyle=orthogonalEdgeStyle;rounded=0;orthogonalLoop=1;jettySize=auto;html=1;fontSize=14;entryX=0;entryY=0.25;entryDx=0;entryDy=0;" edge="1" parent="WIyWlLk6GJQsqaUBKTNV-1" source="E3TxaSYvaLSwamWDa7Aa-19" target="E3TxaSYvaLSwamWDa7Aa-31">
          <mxGeometry relative="1" as="geometry">
            <mxPoint x="280" y="530" as="targetPoint" />
            <Array as="points">
              <mxPoint x="280" y="350" />
              <mxPoint x="280" y="518" />
            </Array>
          </mxGeometry>
        </mxCell>
        <mxCell id="E3TxaSYvaLSwamWDa7Aa-30" value="" style="edgeStyle=orthogonalEdgeStyle;rounded=0;orthogonalLoop=1;jettySize=auto;html=1;fontSize=14;" edge="1" parent="WIyWlLk6GJQsqaUBKTNV-1" source="E3TxaSYvaLSwamWDa7Aa-19">
          <mxGeometry relative="1" as="geometry">
            <mxPoint x="422" y="500" as="targetPoint" />
          </mxGeometry>
        </mxCell>
        <mxCell id="E3TxaSYvaLSwamWDa7Aa-19" value="es relativa o absoluta?" style="rhombus;whiteSpace=wrap;html=1;rounded=0;labelBackgroundColor=none;fontSize=14;fillColor=#FFFFFF;" vertex="1" parent="WIyWlLk6GJQsqaUBKTNV-1">
          <mxGeometry x="373" y="300" width="98" height="100" as="geometry" />
        </mxCell>
        <mxCell id="E3TxaSYvaLSwamWDa7Aa-25" value="absoluta" style="text;strokeColor=none;fillColor=none;align=left;verticalAlign=middle;spacingLeft=4;spacingRight=4;overflow=hidden;points=[[0,0.5],[1,0.5]];portConstraint=eastwest;rotatable=0;rounded=0;labelBackgroundColor=none;fontSize=14;" vertex="1" parent="WIyWlLk6GJQsqaUBKTNV-1">
          <mxGeometry x="290" y="320" width="70" height="30" as="geometry" />
        </mxCell>
        <mxCell id="E3TxaSYvaLSwamWDa7Aa-26" value="relativa" style="text;strokeColor=none;fillColor=none;align=left;verticalAlign=middle;spacingLeft=4;spacingRight=4;overflow=hidden;points=[[0,0.5],[1,0.5]];portConstraint=eastwest;rotatable=0;rounded=0;labelBackgroundColor=none;fontSize=14;" vertex="1" parent="WIyWlLk6GJQsqaUBKTNV-1">
          <mxGeometry x="480" y="320" width="59" height="30" as="geometry" />
        </mxCell>
        <mxCell id="E3TxaSYvaLSwamWDa7Aa-28" value="tomar ruta desde donde se invoque" style="rounded=0;whiteSpace=wrap;html=1;labelBackgroundColor=none;fontSize=14;fillColor=#FFFFFF;" vertex="1" parent="WIyWlLk6GJQsqaUBKTNV-1">
          <mxGeometry x="560" y="320" width="120" height="50" as="geometry" />
        </mxCell>
        <mxCell id="E3TxaSYvaLSwamWDa7Aa-36" value="" style="edgeStyle=orthogonalEdgeStyle;rounded=0;orthogonalLoop=1;jettySize=auto;html=1;fontSize=14;" edge="1" parent="WIyWlLk6GJQsqaUBKTNV-1" source="E3TxaSYvaLSwamWDa7Aa-31">
          <mxGeometry relative="1" as="geometry">
            <mxPoint x="425" y="640" as="targetPoint" />
          </mxGeometry>
        </mxCell>
        <mxCell id="E3TxaSYvaLSwamWDa7Aa-31" value="extraer archivos" style="shape=parallelogram;perimeter=parallelogramPerimeter;whiteSpace=wrap;html=1;fixedSize=1;rounded=0;labelBackgroundColor=none;fontSize=14;fillColor=#FFFFFF;" vertex="1" parent="WIyWlLk6GJQsqaUBKTNV-1">
          <mxGeometry x="360" y="500" width="130" height="60" as="geometry" />
        </mxCell>
        <mxCell id="E3TxaSYvaLSwamWDa7Aa-34" value="" style="endArrow=classic;html=1;rounded=0;fontSize=14;exitX=0.5;exitY=1;exitDx=0;exitDy=0;" edge="1" parent="WIyWlLk6GJQsqaUBKTNV-1" source="E3TxaSYvaLSwamWDa7Aa-28" target="E3TxaSYvaLSwamWDa7Aa-31">
          <mxGeometry width="50" height="50" relative="1" as="geometry">
            <mxPoint x="620" y="380" as="sourcePoint" />
            <mxPoint x="500" y="530" as="targetPoint" />
            <Array as="points">
              <mxPoint x="620" y="530" />
            </Array>
          </mxGeometry>
        </mxCell>
        <mxCell id="E3TxaSYvaLSwamWDa7Aa-39" value="" style="edgeStyle=orthogonalEdgeStyle;rounded=0;orthogonalLoop=1;jettySize=auto;html=1;fontSize=14;entryX=0.673;entryY=1.093;entryDx=0;entryDy=0;entryPerimeter=0;" edge="1" parent="WIyWlLk6GJQsqaUBKTNV-1" source="E3TxaSYvaLSwamWDa7Aa-37" target="E3TxaSYvaLSwamWDa7Aa-0">
          <mxGeometry relative="1" as="geometry">
            <mxPoint x="90" y="680" as="targetPoint" />
            <Array as="points">
              <mxPoint x="91" y="685" />
            </Array>
          </mxGeometry>
        </mxCell>
        <mxCell id="E3TxaSYvaLSwamWDa7Aa-42" value="" style="edgeStyle=orthogonalEdgeStyle;rounded=0;orthogonalLoop=1;jettySize=auto;html=1;fontSize=14;" edge="1" parent="WIyWlLk6GJQsqaUBKTNV-1" source="E3TxaSYvaLSwamWDa7Aa-37">
          <mxGeometry relative="1" as="geometry">
            <mxPoint x="427.5" y="825" as="targetPoint" />
          </mxGeometry>
        </mxCell>
        <mxCell id="E3TxaSYvaLSwamWDa7Aa-37" value="es de tipo .md?" style="rhombus;whiteSpace=wrap;html=1;rounded=0;labelBackgroundColor=none;fontSize=14;fillColor=#FFFFFF;" vertex="1" parent="WIyWlLk6GJQsqaUBKTNV-1">
          <mxGeometry x="385" y="640" width="85" height="90" as="geometry" />
        </mxCell>
        <mxCell id="E3TxaSYvaLSwamWDa7Aa-40" value="No" style="text;strokeColor=none;fillColor=none;align=left;verticalAlign=middle;spacingLeft=4;spacingRight=4;overflow=hidden;points=[[0,0.5],[1,0.5]];portConstraint=eastwest;rotatable=0;rounded=0;labelBackgroundColor=none;fontSize=14;" vertex="1" parent="WIyWlLk6GJQsqaUBKTNV-1">
          <mxGeometry x="285" y="650" width="35" height="30" as="geometry" />
        </mxCell>
        <mxCell id="E3TxaSYvaLSwamWDa7Aa-43" value="SI" style="text;strokeColor=none;fillColor=none;align=left;verticalAlign=middle;spacingLeft=4;spacingRight=4;overflow=hidden;points=[[0,0.5],[1,0.5]];portConstraint=eastwest;rotatable=0;rounded=0;labelBackgroundColor=none;fontSize=14;" vertex="1" parent="WIyWlLk6GJQsqaUBKTNV-1">
          <mxGeometry x="430" y="760" width="80" height="30" as="geometry" />
        </mxCell>
        <mxCell id="E3TxaSYvaLSwamWDa7Aa-46" value="" style="edgeStyle=orthogonalEdgeStyle;rounded=0;orthogonalLoop=1;jettySize=auto;html=1;fontSize=14;" edge="1" parent="WIyWlLk6GJQsqaUBKTNV-1" source="E3TxaSYvaLSwamWDa7Aa-44">
          <mxGeometry relative="1" as="geometry">
            <mxPoint x="433" y="955" as="targetPoint" />
          </mxGeometry>
        </mxCell>
        <mxCell id="E3TxaSYvaLSwamWDa7Aa-44" value="convertir ruta en array" style="rounded=0;whiteSpace=wrap;html=1;labelBackgroundColor=none;fontSize=14;fillColor=#FFFFFF;" vertex="1" parent="WIyWlLk6GJQsqaUBKTNV-1">
          <mxGeometry x="373" y="830" width="120" height="50" as="geometry" />
        </mxCell>
        <mxCell id="E3TxaSYvaLSwamWDa7Aa-49" value="" style="edgeStyle=orthogonalEdgeStyle;rounded=0;orthogonalLoop=1;jettySize=auto;html=1;fontSize=14;" edge="1" parent="WIyWlLk6GJQsqaUBKTNV-1" source="E3TxaSYvaLSwamWDa7Aa-47">
          <mxGeometry relative="1" as="geometry">
            <mxPoint x="433" y="1235" as="targetPoint" />
          </mxGeometry>
        </mxCell>
        <mxCell id="E3TxaSYvaLSwamWDa7Aa-47" value="&lt;div style=&quot;&quot;&gt;&lt;span style=&quot;background-color: initial;&quot;&gt;hay enlaces en el file.md?&lt;/span&gt;&lt;/div&gt;" style="rhombus;whiteSpace=wrap;html=1;rounded=0;labelBackgroundColor=none;fontSize=14;fillColor=#FFFFFF;align=center;" vertex="1" parent="WIyWlLk6GJQsqaUBKTNV-1">
          <mxGeometry x="358" y="960" width="150" height="150" as="geometry" />
        </mxCell>
        <mxCell id="E3TxaSYvaLSwamWDa7Aa-52" value="" style="edgeStyle=orthogonalEdgeStyle;rounded=0;orthogonalLoop=1;jettySize=auto;html=1;fontSize=14;entryX=0;entryY=0.5;entryDx=0;entryDy=0;" edge="1" parent="WIyWlLk6GJQsqaUBKTNV-1" source="E3TxaSYvaLSwamWDa7Aa-50" target="E3TxaSYvaLSwamWDa7Aa-53">
          <mxGeometry relative="1" as="geometry">
            <mxPoint x="610" y="1270" as="targetPoint" />
          </mxGeometry>
        </mxCell>
        <mxCell id="E3TxaSYvaLSwamWDa7Aa-50" value="retirar enlace" style="rounded=0;whiteSpace=wrap;html=1;labelBackgroundColor=none;fontSize=14;fillColor=#FFFFFF;" vertex="1" parent="WIyWlLk6GJQsqaUBKTNV-1">
          <mxGeometry x="373" y="1240" width="120" height="60" as="geometry" />
        </mxCell>
        <mxCell id="E3TxaSYvaLSwamWDa7Aa-57" value="" style="edgeStyle=orthogonalEdgeStyle;rounded=0;orthogonalLoop=1;jettySize=auto;html=1;fontSize=14;" edge="1" parent="WIyWlLk6GJQsqaUBKTNV-1" source="E3TxaSYvaLSwamWDa7Aa-53">
          <mxGeometry relative="1" as="geometry">
            <mxPoint x="520" y="1410" as="targetPoint" />
            <Array as="points">
              <mxPoint x="660" y="1410" />
            </Array>
          </mxGeometry>
        </mxCell>
        <mxCell id="E3TxaSYvaLSwamWDa7Aa-60" value="" style="edgeStyle=orthogonalEdgeStyle;rounded=0;orthogonalLoop=1;jettySize=auto;html=1;fontSize=14;" edge="1" parent="WIyWlLk6GJQsqaUBKTNV-1" source="E3TxaSYvaLSwamWDa7Aa-53">
          <mxGeometry relative="1" as="geometry">
            <mxPoint x="767" y="1270" as="targetPoint" />
          </mxGeometry>
        </mxCell>
        <mxCell id="E3TxaSYvaLSwamWDa7Aa-53" value="se desea validar?" style="rhombus;whiteSpace=wrap;html=1;rounded=0;labelBackgroundColor=none;fontSize=14;fillColor=#FFFFFF;" vertex="1" parent="WIyWlLk6GJQsqaUBKTNV-1">
          <mxGeometry x="620" y="1230" width="80" height="80" as="geometry" />
        </mxCell>
        <mxCell id="E3TxaSYvaLSwamWDa7Aa-54" value="" style="endArrow=classic;html=1;rounded=0;fontSize=14;" edge="1" parent="WIyWlLk6GJQsqaUBKTNV-1">
          <mxGeometry width="50" height="50" relative="1" as="geometry">
            <mxPoint x="440" y="1300" as="sourcePoint" />
            <mxPoint x="440" y="1380" as="targetPoint" />
          </mxGeometry>
        </mxCell>
        <mxCell id="E3TxaSYvaLSwamWDa7Aa-65" value="" style="edgeStyle=orthogonalEdgeStyle;rounded=0;orthogonalLoop=1;jettySize=auto;html=1;fontSize=14;" edge="1" parent="WIyWlLk6GJQsqaUBKTNV-1" source="E3TxaSYvaLSwamWDa7Aa-55">
          <mxGeometry relative="1" as="geometry">
            <mxPoint x="442.5" y="1515" as="targetPoint" />
          </mxGeometry>
        </mxCell>
        <mxCell id="E3TxaSYvaLSwamWDa7Aa-55" value="devolver enlace en forma de objeto" style="rounded=0;whiteSpace=wrap;html=1;labelBackgroundColor=none;fontSize=14;fillColor=#FFFFFF;" vertex="1" parent="WIyWlLk6GJQsqaUBKTNV-1">
          <mxGeometry x="370" y="1390" width="145" height="50" as="geometry" />
        </mxCell>
        <mxCell id="E3TxaSYvaLSwamWDa7Aa-58" value="SI" style="text;html=1;align=center;verticalAlign=middle;resizable=0;points=[];autosize=1;strokeColor=none;fillColor=none;fontSize=14;" vertex="1" parent="WIyWlLk6GJQsqaUBKTNV-1">
          <mxGeometry x="660" y="1340" width="40" height="30" as="geometry" />
        </mxCell>
        <mxCell id="E3TxaSYvaLSwamWDa7Aa-62" value="NO" style="text;strokeColor=none;fillColor=none;align=left;verticalAlign=middle;spacingLeft=4;spacingRight=4;overflow=hidden;points=[[0,0.5],[1,0.5]];portConstraint=eastwest;rotatable=0;rounded=0;labelBackgroundColor=none;fontSize=14;" vertex="1" parent="WIyWlLk6GJQsqaUBKTNV-1">
          <mxGeometry x="710" y="1240" width="80" height="30" as="geometry" />
        </mxCell>
        <mxCell id="E3TxaSYvaLSwamWDa7Aa-63" value="mostrar informaciÃ³n con estadÃ­sticas" style="shape=parallelogram;perimeter=parallelogramPerimeter;whiteSpace=wrap;html=1;fixedSize=1;rounded=0;labelBackgroundColor=none;fontSize=14;fillColor=#FFFFFF;" vertex="1" parent="WIyWlLk6GJQsqaUBKTNV-1">
          <mxGeometry x="760" y="1240" width="150" height="60" as="geometry" />
        </mxCell>
        <mxCell id="E3TxaSYvaLSwamWDa7Aa-68" value="" style="edgeStyle=orthogonalEdgeStyle;rounded=0;orthogonalLoop=1;jettySize=auto;html=1;fontSize=14;" edge="1" parent="WIyWlLk6GJQsqaUBKTNV-1" source="E3TxaSYvaLSwamWDa7Aa-66">
          <mxGeometry relative="1" as="geometry">
            <mxPoint x="442.5" y="1750" as="targetPoint" />
          </mxGeometry>
        </mxCell>
        <mxCell id="E3TxaSYvaLSwamWDa7Aa-70" value="" style="edgeStyle=orthogonalEdgeStyle;rounded=0;orthogonalLoop=1;jettySize=auto;html=1;fontSize=14;" edge="1" parent="WIyWlLk6GJQsqaUBKTNV-1" source="E3TxaSYvaLSwamWDa7Aa-66">
          <mxGeometry relative="1" as="geometry">
            <mxPoint x="598.7550000000001" y="1580" as="targetPoint" />
          </mxGeometry>
        </mxCell>
        <mxCell id="E3TxaSYvaLSwamWDa7Aa-66" value="es verdadero o falso?" style="rhombus;whiteSpace=wrap;html=1;rounded=0;labelBackgroundColor=none;fontSize=14;fillColor=#FFFFFF;" vertex="1" parent="WIyWlLk6GJQsqaUBKTNV-1">
          <mxGeometry x="384.38" y="1520" width="116.25" height="120" as="geometry" />
        </mxCell>
        <mxCell id="E3TxaSYvaLSwamWDa7Aa-71" value="verdadero" style="text;html=1;strokeColor=none;fillColor=none;align=center;verticalAlign=middle;whiteSpace=wrap;rounded=0;labelBackgroundColor=none;fontSize=14;" vertex="1" parent="WIyWlLk6GJQsqaUBKTNV-1">
          <mxGeometry x="373" y="1660" width="60" height="30" as="geometry" />
        </mxCell>
        <mxCell id="E3TxaSYvaLSwamWDa7Aa-72" value="falso" style="text;html=1;strokeColor=none;fillColor=none;align=center;verticalAlign=middle;whiteSpace=wrap;rounded=0;labelBackgroundColor=none;fontSize=14;" vertex="1" parent="WIyWlLk6GJQsqaUBKTNV-1">
          <mxGeometry x="515" y="1550" width="60" height="30" as="geometry" />
        </mxCell>
        <mxCell id="E3TxaSYvaLSwamWDa7Aa-73" value="&lt;div style=&quot;&quot;&gt;&lt;span style=&quot;background-color: initial;&quot;&gt;retorna:&lt;/span&gt;&lt;/div&gt;&lt;div style=&quot;&quot;&gt;&lt;ul&gt;&lt;li style=&quot;&quot;&gt;url&lt;/li&gt;&lt;li style=&quot;&quot;&gt;text&lt;/li&gt;&lt;li&gt;mensase (fail u ok)&lt;/li&gt;&lt;/ul&gt;&lt;/div&gt;" style="rounded=0;whiteSpace=wrap;html=1;labelBackgroundColor=none;fontSize=14;fillColor=#FFFFFF;align=left;" vertex="1" parent="WIyWlLk6GJQsqaUBKTNV-1">
          <mxGeometry x="362.82" y="1754" width="167.18" height="96" as="geometry" />
        </mxCell>
        <mxCell id="E3TxaSYvaLSwamWDa7Aa-74" value="retorna:&lt;br&gt;&lt;ul&gt;&lt;li style=&quot;&quot;&gt;href&lt;/li&gt;&lt;li style=&quot;&quot;&gt;text&lt;/li&gt;&lt;li&gt;archivo&lt;/li&gt;&lt;/ul&gt;" style="rounded=0;whiteSpace=wrap;html=1;labelBackgroundColor=none;fontSize=14;fillColor=#FFFFFF;align=left;" vertex="1" parent="WIyWlLk6GJQsqaUBKTNV-1">
          <mxGeometry x="600" y="1550" width="120" height="90" as="geometry" />
        </mxCell>
      </root>
    </mxGraphModel>
  </diagram>
</mxfile>
